HIERARCHY
ROOT hip
{
  OFFSET 0 0 0
  CHANNELS 6 Xposition Yposition Zposition Zrotation Yrotation Xrotation
  JOINT abdomen
  {
    OFFSET 0 20.6881 -0.73152
    CHANNELS 3 Zrotation Xrotation Yrotation
    JOINT chest
    {
      OFFSET 0 11.7043 -0.48768
      CHANNELS 3 Zrotation Xrotation Yrotation
      JOINT neck
      {
        OFFSET 0 22.1894 -2.19456
        CHANNELS 3 Zrotation Xrotation Yrotation
        JOINT head
        {
          OFFSET -0.24384 7.07133 1.2192
          CHANNELS 3 Zrotation Xrotation Yrotation
          JOINT leftEye
          {
            OFFSET 4.14528 8.04674 8.04672
            CHANNELS 3 Zrotation Xrotation Yrotation
            End Site
            {
              OFFSET 1 0 0
            }
          }
          JOINT rightEye
          {
            OFFSET -3.6576 8.04674 8.04672
            CHANNELS 3 Zrotation Xrotation Yrotation
            End Site
            {
              OFFSET 1 0 0
            }
          }
        }
      }
      JOINT rCollar
      {
        OFFSET -2.68224 19.2634 -4.8768
        CHANNELS 3 Zrotation Xrotation Yrotation
        JOINT rShldr
        {
          OFFSET -8.77824 -1.95073 1.46304
          CHANNELS 3 Zrotation Xrotation Yrotation
          JOINT rForeArm
          {
            OFFSET -28.1742 -1.7115 0.48768
            CHANNELS 3 Zrotation Xrotation Yrotation
            JOINT rHand
            {
              OFFSET -22.5879 0.773209 7.07136
              CHANNELS 3 Zrotation Xrotation Yrotation
              JOINT rThumb1
              {
                OFFSET -1.2192 -0.487915 3.41376
                CHANNELS 3 Zrotation Xrotation Yrotation
                JOINT rThumb2
                {
                  OFFSET -3.37035 -0.52449 3.41376
                  CHANNELS 3 Zrotation Xrotation Yrotation
                  End Site
                  {
                    OFFSET -1.78271 -1.18214 1.43049
                  }
                }
              }
              JOINT rIndex1
              {
                OFFSET -7.75947 0.938293 5.60832
                CHANNELS 3 Zrotation Xrotation Yrotation
                JOINT rIndex2
                {
                  OFFSET -2.54057 -0.884171 1.56538
                  CHANNELS 3 Zrotation Xrotation Yrotation
                  End Site
                  {
                    OFFSET -1.62519 -0.234802 1.16502
                  }
                }
              }
              JOINT rMid1
              {
                OFFSET -8.24714 1.18213 3.41376
                CHANNELS 3 Zrotation Xrotation Yrotation
                JOINT rMid2
                {
                  OFFSET -3.10165 -0.590103 1.0647
                  CHANNELS 3 Zrotation Xrotation Yrotation
                  End Site
                  {
                    OFFSET -2.48547 -0.328903 0.83742
                  }
                }
              }
              JOINT rRing1
              {
                OFFSET -8.82822 0.546677 1.51678
                CHANNELS 3 Zrotation Xrotation Yrotation
                JOINT rRing2
                {
                  OFFSET -2.60934 -0.819778 -0.0198488
                  CHANNELS 3 Zrotation Xrotation Yrotation
                  End Site
                  {
                    OFFSET -2.33842 -0.294052 0.168128
                  }
                }
              }
              JOINT rPinky1
              {
                OFFSET -8.27202 -0.0477905 -0.4584
                CHANNELS 3 Zrotation Xrotation Yrotation
                JOINT rPinky2
                {
                  OFFSET -1.82734 -0.647385 -0.700984
                  CHANNELS 3 Zrotation Xrotation Yrotation
                  End Site
                  {
                    OFFSET -1.69225 -0.51767 -0.607171
                  }
                }
              }
            }
          }
        }
      }
      JOINT lCollar
      {
        OFFSET 2.68224 19.2634 -4.8768
        CHANNELS 3 Zrotation Xrotation Yrotation
        JOINT lShldr
        {
          OFFSET 8.77824 -1.95073 1.46304
          CHANNELS 3 Zrotation Xrotation Yrotation
          JOINT lForeArm
          {
            OFFSET 28.1742 -1.7115 0.48768
            CHANNELS 3 Zrotation Xrotation Yrotation
            JOINT lHand
            {
              OFFSET 22.5879 0.773209 7.07136
              CHANNELS 3 Zrotation Xrotation Yrotation
              JOINT lThumb1
              {
                OFFSET 1.2192 -0.487915 3.41376
                CHANNELS 3 Zrotation Xrotation Yrotation
                JOINT lThumb2
                {
                  OFFSET 3.37035 -0.52449 3.41376
                  CHANNELS 3 Zrotation Xrotation Yrotation
                  End Site
                  {
                    OFFSET 1.78271 -1.18214 1.43049
                  }
                }
              }
              JOINT lIndex1
              {
                OFFSET 7.75947 0.938293 5.60832
                CHANNELS 3 Zrotation Xrotation Yrotation
                JOINT lIndex2
                {
                  OFFSET 2.54057 -0.884171 1.56538
                  CHANNELS 3 Zrotation Xrotation Yrotation
                  End Site
                  {
                    OFFSET 1.62519 -0.234802 1.16502
                  }
                }
              }
              JOINT lMid1
              {
                OFFSET 8.24714 1.18213 3.41376
                CHANNELS 3 Zrotation Xrotation Yrotation
                JOINT lMid2
                {
                  OFFSET 3.10165 -0.590103 1.0647
                  CHANNELS 3 Zrotation Xrotation Yrotation
                  End Site
                  {
                    OFFSET 2.48547 -0.328903 0.83742
                  }
                }
              }
              JOINT lRing1
              {
                OFFSET 8.82822 0.546677 1.51678
                CHANNELS 3 Zrotation Xrotation Yrotation
                JOINT lRing2
                {
                  OFFSET 2.60934 -0.819778 -0.0198488
                  CHANNELS 3 Zrotation Xrotation Yrotation
                  End Site
                  {
                    OFFSET 2.33842 -0.294052 0.168128
                  }
                }
              }
              JOINT lPinky1
              {
                OFFSET 8.27202 -0.0477905 -0.4584
                CHANNELS 3 Zrotation Xrotation Yrotation
                JOINT lPinky2
                {
                  OFFSET 1.82734 -0.647385 -0.700984
                  CHANNELS 3 Zrotation Xrotation Yrotation
                  End Site
                  {
                    OFFSET 1.69225 -0.51767 -0.607171
                  }
                }
              }
            }
          }
        }
      }
    }
  }
  JOINT rButtock
  {
    OFFSET -8.77824 4.35084 1.2192
    CHANNELS 3 Zrotation Xrotation Yrotation
    JOINT rThigh
    {
      OFFSET 0 -1.70687 -2.19456
      CHANNELS 3 Zrotation Xrotation Yrotation
      JOINT rShin
      {
        OFFSET 0 -36.8199 0.73152
        CHANNELS 3 Zrotation Xrotation Yrotation
        JOINT rFoot
        {
          OFFSET 0.73152 -45.1104 -5.12064
          CHANNELS 3 Zrotation Xrotation Yrotation
          End Site
          {
            OFFSET -1.1221 -3.69964 12.103
          }
        }
      }
    }
  }
  JOINT lButtock
  {
    OFFSET 8.77824 4.35084 1.2192
    CHANNELS 3 Zrotation Xrotation Yrotation
    JOINT lThigh
    {
      OFFSET 0 -1.70687 -2.19456
      CHANNELS 3 Zrotation Xrotation Yrotation
      JOINT lShin
      {
        OFFSET 0 -36.8199 0.73152
        CHANNELS 3 Zrotation Xrotation Yrotation
        JOINT lFoot
        {
          OFFSET -0.73152 -45.1104 -5.12064
          CHANNELS 3 Zrotation Xrotation Yrotation
          End Site
          {
            OFFSET 1.1221 -3.69964 12.103
          }
        }
      }
    }
  }
}
MOTION
Frames:	7
Frame Time:	0.00833333
-3.87655 81.3214 24.3968 -9.4505 -3.7124 14.338 -2.73858 36.3085 -0.410994 3.57306 -4.22781 -0.252527 -8.95151 25.5806 -19.3722 27.8013 -11.2499 -34.6432 -0.0 0.0 0.0 -0.0 0.0 0.0 1.37843e-13 8.47473e-16 -1.04083e-13 -2.54721 -4.22717 72.0768 -27.2006 -27.0324 62.5257 -0.340778 -16.4245 -2.37371 -4.42182e-10 -1.0848e-09 -2.34551e-10 -7.63868e-10 -1.87344e-09 -4.00053e-10 -4.42177e-10 -1.0848e-09 -2.3457e-10 7.73091 5.47488 0.417314 -4.42181e-10 -1.0848e-09 -2.34551e-10 2.90554 0.965183 0.102902 -4.42172e-10 -1.0848e-09 -2.34556e-10 10.2786 0.731801 0.0259123 -4.42191e-10 -1.0848e-09 -2.34556e-10 2.22167 -0.733487 -0.20892 1.3779e-13 8.42043e-16 -1.04301e-13 -76.9514 28.079 3.65028 26.5737 -25.0059 -59.2921 0.350919 -16.6125 2.40315 -7.18301e-10 -1.31667e-10 -4.42715e-10 -1.23227e-09 -2.2263e-10 -7.74004e-10 -7.18305e-10 -1.31663e-10 -4.42702e-10 -7.73091 5.47488 -0.417314 -7.18299e-10 -1.31668e-10 -4.42714e-10 -2.90554 0.965183 -0.102902 -7.18312e-10 -1.31667e-10 -4.42712e-10 -10.2786 0.731801 -0.0259123 -7.18307e-10 -1.3167e-10 -4.42713e-10 -2.22167 -0.733487 0.20892 -2.03217e-16 0.0 -3.88251e-19 2.04452 -24.805 1.92287 -0.0366333 15.118 0.300346 -2.32996 -10.0988 -10.1064 2.03217e-16 0.0 3.88251e-19 20.8616 -38.5213 8.3381 0.30337 40.5131 -0.932381 2.32539 -14.7048 7.65565
-3.89949 81.3454 24.4546 -9.3676 -3.5706 14.3251 -2.65336 36.0423 -0.479647 3.63152 -4.33594 -0.25446 -8.97236 25.4537 -19.3713 27.7514 -11.2032 -34.6625 -0.0 0.0 0.0 -0.0 0.0 0.0 1.86907e-13 -9.53739e-15 -1.41386e-13 -0.508484 -5.00912 72.6604 -27.2422 -27.1828 62.7644 -0.294649 -15.2663 -2.19833 -1.10457e-09 -1.4957e-09 -3.76447e-10 -1.90306e-09 -2.55883e-09 -6.55172e-10 -1.10456e-09 -1.4957e-09 -3.76463e-10 7.73091 5.47488 0.417314 -1.10457e-09 -1.49571e-09 -3.76447e-10 2.90554 0.965183 0.102902 -1.10456e-09 -1.49571e-09 -3.76453e-10 10.2786 0.731801 0.0259123 -1.10458e-09 -1.4957e-09 -3.76454e-10 2.22167 -0.733487 -0.20892 1.8682e-13 -9.54632e-15 -1.41634e-13 -77.0565 28.0968 3.63505 26.5697 -24.9943 -59.2734 0.349472 -16.5799 2.39815 -8.4095e-10 -1.53029e-10 -1.43094e-09 -1.42938e-09 -2.49235e-10 -2.48509e-09 -8.40953e-10 -1.53025e-10 -1.43093e-09 -7.73091 5.47488 -0.417314 -8.40948e-10 -1.5303e-10 -1.43094e-09 -2.90554 0.965183 -0.102902 -8.40961e-10 -1.53028e-10 -1.43094e-09 -10.2786 0.731801 -0.0259123 -8.40957e-10 -1.53032e-10 -1.43094e-09 -2.22167 -0.733487 0.20892 -2.03217e-16 0.0 -3.88251e-19 1.96345 -24.7777 1.8514 -0.0371374 15.1651 0.301325 -2.35203 -10.1506 -10.1535 2.03217e-16 0.0 3.88251e-19 20.7125 -38.4639 8.19961 0.30119 40.4072 -0.929353 2.32697 -14.6752 7.6717
-3.92433 81.3575 24.5084 -9.2846 -3.4612 14.342 -2.55871 35.7691 -0.513348 3.68256 -4.41854 -0.247419 -8.97102 25.3434 -19.3651 27.7239 -11.2288 -34.6548 -0.0 0.0 0.0 -0.0 0.0 0.0 1.11195e-13 -2.21105e-14 -1.28976e-13 1.53075 -5.75828 73.2349 -27.2853 -27.3421 63.0191 -0.257064 -14.2818 -2.05036 -6.06098e-10 -1.39414e-10 5.40503e-10 -1.05109e-09 -2.44373e-10 9.31557e-10 -6.06097e-10 -1.39421e-10 5.40486e-10 7.73091 5.47488 0.417314 -6.06099e-10 -1.39423e-10 5.40502e-10 2.90554 0.965183 0.102902 -6.06087e-10 -1.39422e-10 5.40496e-10 10.2786 0.731801 0.0259123 -6.06109e-10 -1.39419e-10 5.40495e-10 2.22167 -0.733487 -0.20892 1.11127e-13 -2.21194e-14 -1.29228e-13 -77.1397 28.1282 3.60151 26.5659 -24.9832 -59.2557 0.346665 -16.5156 2.38831 -5.44398e-10 1.65925e-10 8.34576e-11 -9.38151e-10 2.84268e-10 1.34774e-10 -5.44402e-10 1.6593e-10 8.3471e-11 -7.73091 5.47488 -0.417314 -5.44396e-10 1.65924e-10 8.34564e-11 -2.90554 0.965183 -0.102902 -5.44408e-10 1.65926e-10 8.34595e-11 -10.2786 0.731801 -0.0259123 -5.44403e-10 1.65923e-10 8.34559e-11 -2.22167 -0.733487 0.20892 -2.03217e-16 0.0 -3.88251e-19 1.8922 -24.7635 1.79247 -0.0373679 15.1909 0.302112 -2.3716 -10.2254 -10.1771 2.03217e-16 0.0 3.88251e-19 20.5815 -38.4427 8.06426 0.299554 40.3257 -0.926958 2.32991 -14.6586 7.68731
-3.9536 81.368 24.569 -9.2186 -3.379 14.3469 -2.46043 35.4929 -0.520028 3.74029 -4.48735 -0.233192 -8.96199 25.2352 -19.3505 27.6998 -11.2775 -34.6248 -0.0 0.0 0.0 -0.0 0.0 0.0 -4.38619e-14 -3.77656e-14 -8.88226e-14 3.60211 -6.46085 73.8344 -27.3273 -27.4998 63.27 -0.222702 -13.3224 -1.90722 5.79957e-10 2.33438e-09 2.1311e-09 9.79982e-10 3.96868e-09 3.68914e-09 5.79959e-10 2.33438e-09 2.13108e-09 7.73091 5.47488 0.417314 5.79956e-10 2.33437e-09 2.13109e-09 2.90554 0.965183 0.102902 5.79969e-10 2.33437e-09 2.13109e-09 10.2786 0.731801 0.0259123 5.79949e-10 2.33438e-09 2.13109e-09 2.22167 -0.733487 -0.20892 -4.38764e-14 -3.77726e-14 -8.90649e-14 -77.225 28.1642 3.55951 26.5618 -24.9713 -59.2367 0.34267 -16.4232 2.37417 2.73735e-11 7.02612e-10 3.11919e-09 6.73989e-12 1.17688e-09 5.38751e-09 2.73678e-11 7.02615e-10 3.1192e-09 -7.73091 5.47488 -0.417314 2.73747e-11 7.0261e-10 3.11918e-09 -2.90554 0.965183 -0.102902 2.73649e-11 7.02611e-10 3.11919e-09 -10.2786 0.731801 -0.0259123 2.73727e-11 7.0261e-10 3.11918e-09 -2.22167 -0.733487 0.20892 -2.03217e-16 0.0 -3.88251e-19 1.82797 -24.7615 1.7385 -0.0374465 15.2017 0.302733 -2.38853 -10.3122 -10.1834 2.03217e-16 0.0 3.88251e-19 20.4632 -38.4488 7.92995 0.298285 40.2613 -0.925041 2.33484 -14.6522 7.70549
-3.98299 81.3765 24.6153 -9.1892 -3.282 14.3687 -2.36485 35.2257 -0.503333 3.79294 -4.56409 -0.212983 -8.94301 25.137 -19.3356 27.6772 -11.3416 -34.5893 -0.0 0.0 0.0 -0.0 0.0 0.0 -2.06199e-13 -5.20298e-14 -4.63382e-14 5.6406 -7.11345 74.4413 -27.3575 -27.6149 63.4532 -0.191905 -12.3928 -1.76959 1.87647e-09 5.0082e-09 3.73694e-09 3.20141e-09 8.5248e-09 6.47458e-09 1.87648e-09 5.00819e-09 3.73692e-09 7.73091 5.47488 0.417314 1.87647e-09 5.00819e-09 3.73693e-09 2.90554 0.965183 0.102902 1.87649e-09 5.00819e-09 3.73693e-09 10.2786 0.731801 0.0259123 1.87647e-09 5.00819e-09 3.73693e-09 2.22167 -0.733487 -0.20892 -2.06163e-13 -5.20337e-14 -4.6561e-14 -77.3027 28.2076 3.51262 26.5567 -24.9562 -59.2127 0.337752 -16.3086 2.35667 6.43827e-10 1.2834e-09 6.3362e-09 1.02626e-09 2.14392e-09 1.09545e-08 6.4382e-10 1.2834e-09 6.33621e-09 -7.73091 5.47488 -0.417314 6.43827e-10 1.28339e-09 6.3362e-09 -2.90554 0.965183 -0.102902 6.4382e-10 1.28339e-09 6.3362e-09 -10.2786 0.731801 -0.0259123 6.4383e-10 1.28339e-09 6.33619e-09 -2.22167 -0.733487 0.20892 -2.03217e-16 0.0 -3.88251e-19 1.76616 -24.769 1.67519 -0.0374882 15.2075 0.303231 -2.40231 -10.3958 -10.18 2.03217e-16 0.0 3.88251e-19 20.3509 -38.4704 7.79251 0.297148 40.2033 -0.923323 2.34061 -14.6493 7.7249
-3.99777 81.377 24.6369 -9.1075 -3.1541 14.4322 -2.27841 34.9796 -0.46684 3.82874 -4.67049 -0.187995 -8.91188 25.0568 -19.3288 27.6545 -11.4132 -34.5656 -0.0 0.0 0.0 -0.0 0.0 0.0 -3.03753e-13 -6.04301e-14 -2.69353e-14 7.58025 -7.71623 75.0376 -27.3661 -27.6475 63.5037 -0.164931 -11.4976 -1.63816 2.70632e-09 6.96454e-09 4.69962e-09 4.62443e-09 1.18685e-08 8.14489e-09 2.70633e-09 6.96454e-09 4.6996e-09 7.73091 5.47488 0.417314 2.70632e-09 6.96454e-09 4.69962e-09 2.90554 0.965183 0.102902 2.70634e-09 6.96454e-09 4.69961e-09 10.2786 0.731801 0.0259123 2.70632e-09 6.96454e-09 4.69962e-09 2.22167 -0.733487 -0.20892 -3.03703e-13 -6.04305e-14 -2.71341e-14 -77.363 28.2613 3.46442 26.5497 -24.9358 -59.1799 0.33217 -16.1784 2.33679 1.07442e-09 1.73464e-09 8.39445e-09 1.74138e-09 2.90068e-09 1.4517e-08 1.07442e-09 1.73465e-09 8.39446e-09 -7.73091 5.47488 -0.417314 1.07442e-09 1.73464e-09 8.39444e-09 -2.90554 0.965183 -0.102902 1.07442e-09 1.73464e-09 8.39445e-09 -10.2786 0.731801 -0.0259123 1.07443e-09 1.73464e-09 8.39444e-09 -2.22167 -0.733487 0.20892 -2.03217e-16 0.0 -3.88251e-19 1.70218 -24.7831 1.58825 -0.0376089 15.2185 0.303651 -2.41249 -10.461 -10.1743 2.03217e-16 0.0 3.88251e-19 20.2377 -38.4956 7.64788 0.295914 40.1409 -0.921525 2.34604 -14.6435 7.74418
-4.01371 81.3829 24.6504 -9.0169 -3.0277 14.5091 -2.20323 34.7624 -0.398921 3.83603 -4.82304 -0.155212 -8.86431 24.9999 -19.3314 27.6323 -11.4835 -34.5572 -0.0 0.0 0.0 -0.0 0.0 0.0 -3.09615e-13 -6.17e-14 -4.95847e-14 9.49307 -8.27105 75.6788 -27.3398 -27.5456 63.3352 -0.139087 -10.5836 -1.50476 2.91831e-09 8.18549e-09 4.75098e-09 4.99121e-09 1.39809e-08 8.23553e-09 2.91831e-09 8.1855e-09 4.75096e-09 7.73091 5.47488 0.417314 2.91831e-09 8.18549e-09 4.75098e-09 2.90554 0.965183 0.102902 2.91832e-09 8.18549e-09 4.75098e-09 10.2786 0.731801 0.0259123 2.91831e-09 8.18549e-09 4.75098e-09 2.22167 -0.733487 -0.20892 -3.09614e-13 -6.16955e-14 -4.97439e-14 -77.3913 28.3383 3.40443 26.5391 -24.9047 -59.1299 0.325447 -16.0205 2.31273 1.27923e-09 2.09796e-09 8.91903e-09 2.08881e-09 3.52387e-09 1.54269e-08 1.27923e-09 2.09796e-09 8.91904e-09 -7.73091 5.47488 -0.417314 1.27923e-09 2.09796e-09 8.91902e-09 -2.90554 0.965183 -0.102902 1.27923e-09 2.09796e-09 8.91903e-09 -10.2786 0.731801 -0.0259123 1.27924e-09 2.09796e-09 8.91902e-09 -2.22167 -0.733487 0.20892 -2.03217e-16 0.0 -3.88251e-19 1.63497 -24.8079 1.46794 -0.0378997 15.2356 0.30391 -2.41698 -10.4978 -10.1644 2.03217e-16 0.0 3.88251e-19 20.1213 -38.5256 7.48892 0.294502 40.0705 -0.919618 2.35236 -14.6342 7.76772
